HIERARCHY
ROOT Hips
{
	OFFSET 0.00000 0.00000 0.00000
	CHANNELS 6 Xposition Yposition Zposition Zrotation Yrotation Xrotation 
	JOINT LHipJoint
	{
		OFFSET 0 0 0
		CHANNELS 3 Zrotation Yrotation Xrotation
		JOINT LeftUpLeg
		{
			OFFSET 1.39187 -1.60231 0.69152
			CHANNELS 3 Zrotation Yrotation Xrotation
			JOINT LeftLeg
			{
				OFFSET 2.43314 -6.68499 0.00000
				CHANNELS 3 Zrotation Yrotation Xrotation
				JOINT LeftFoot
				{
					OFFSET 2.32059 -6.37578 0.00000
					CHANNELS 3 Zrotation Yrotation Xrotation
					JOINT LeftToeBase
					{
						OFFSET 0.23021 -0.63250 1.71305
						CHANNELS 3 Zrotation Yrotation Xrotation
						End Site
						{
							OFFSET 0.00000 -0.00000 0.91647
						}
					}
				}
			}
		}
	}
	JOINT RHipJoint
	{
		OFFSET 0 0 0
		CHANNELS 3 Zrotation Yrotation Xrotation
		JOINT RightUpLeg
		{
			OFFSET -1.19407 -1.60231 0.69152
			CHANNELS 3 Zrotation Yrotation Xrotation
			JOINT RightLeg
			{
				OFFSET -2.44411 -6.71513 0.00000
				CHANNELS 3 Zrotation Yrotation Xrotation
				JOINT RightFoot
				{
					OFFSET -2.31924 -6.37207 0.00000
					CHANNELS 3 Zrotation Yrotation Xrotation
					JOINT RightToeBase
					{
						OFFSET -0.19473 -0.53502 1.87724
						CHANNELS 3 Zrotation Yrotation Xrotation
						End Site
						{
							OFFSET -0.00000 -0.00000 0.98293
						}
					}
				}
			}
		}
	}
	JOINT LowerBack
	{
		OFFSET 0 0 0
		CHANNELS 3 Zrotation Yrotation Xrotation
		JOINT Spine
		{
			OFFSET -0.01120 1.87307 0.09613
			CHANNELS 3 Zrotation Yrotation Xrotation
			JOINT Spine1
			{
				OFFSET 0.01099 1.87818 0.04834
				CHANNELS 3 Zrotation Yrotation Xrotation
				JOINT Neck
				{
					OFFSET 0 0 0
					CHANNELS 3 Zrotation Yrotation Xrotation
					JOINT Neck1
					{
						OFFSET 0.01702 1.40324 -0.12579
						CHANNELS 3 Zrotation Yrotation Xrotation
						JOINT Head
						{
							OFFSET -0.04239 1.38587 -0.01614
							CHANNELS 3 Zrotation Yrotation Xrotation
							End Site
							{
								OFFSET -0.02510 1.47031 -0.00154
							}
						}
					}
				}
				JOINT LeftShoulder
				{
					OFFSET 0 0 0
					CHANNELS 3 Zrotation Yrotation Xrotation
					JOINT LeftArm
					{
						OFFSET 2.95699 0.62343 0.11653
						CHANNELS 3 Zrotation Yrotation Xrotation
						JOINT LeftForeArm
						{
							OFFSET 4.68382 -0.00000 -0.00000
							CHANNELS 3 Zrotation Yrotation Xrotation
							JOINT LeftHand
							{
								OFFSET 2.98124 -0.00000 -0.00000
								CHANNELS 3 Zrotation Yrotation Xrotation
								JOINT LeftFingerBase
								{
									OFFSET 0 0 0
									CHANNELS 3 Zrotation Yrotation Xrotation
									JOINT LeftHandIndex1
									{
										OFFSET 0.70759 -0.00000 0.00000
										CHANNELS 3 Zrotation Yrotation Xrotation
										End Site
										{
											OFFSET 0.57048 -0.00000 0.00000
										}
									}
								}
								JOINT LThumb
								{
									OFFSET 0 0 0
									CHANNELS 3 Zrotation Yrotation Xrotation
									End Site
									{
										OFFSET 0.57919 -0.00000 0.57919
									}
								}
							}
						}
					}
				}
				JOINT RightShoulder
				{
					OFFSET 0 0 0
					CHANNELS 3 Zrotation Yrotation Xrotation
					JOINT RightArm
					{
						OFFSET -2.99027 0.88714 -0.02793
						CHANNELS 3 Zrotation Yrotation Xrotation
						JOINT RightForeArm
						{
							OFFSET -4.75876 -0.00000 -0.00000
							CHANNELS 3 Zrotation Yrotation Xrotation
							JOINT RightHand
							{
								OFFSET -2.93293 -0.00000 -0.00000
								CHANNELS 3 Zrotation Yrotation Xrotation
								JOINT RightFingerBase
								{
									OFFSET 0 0 0
									CHANNELS 3 Zrotation Yrotation Xrotation
									JOINT RightHandIndex1
									{
										OFFSET -0.83175 -0.00000 0.00000
										CHANNELS 3 Zrotation Yrotation Xrotation
										End Site
										{
											OFFSET -0.67058 -0.00000 0.00000
										}
									}
								}
								JOINT RThumb
								{
									OFFSET 0 0 0
									CHANNELS 3 Zrotation Yrotation Xrotation
									End Site
									{
										OFFSET -0.68082 -0.00000 0.68082
									}
								}
							}
						}
					}
				}
			}
		}
	}
}
MOTION
Frames: 13
Frame Time: .0083333
-7.3267 16.4511 0.4990 382.5020 93.4754 396.3990 0.0000 0.0000 0.0000 -15.7431 -2.9082 -19.1041 10.2333 17.5390 60.2654 -0.2346 -10.4799 10.3035 0.0124 -0.7197 -1.9779 0.0000 0.0000 0.0000 24.2649 16.7436 -23.1200 -1.4412 -7.5895 21.4741 -0.3010 -0.0392 -10.3780 -0.0068 0.5340 -1.4672 -2.7543 -0.2964 -12.9683 1.2199 0.2063 -6.2060 2.8526 0.3068 0.7456 -7.5456 -1.0156 6.9995 11.3027 -1.5644 -1.3492 4.6933 -0.9656 -1.3965 0.0000 0.0000 0.0000 -91.6913 8.6768 -92.2371 5.9937 -10.2516 -0.5381 -0.0000 -0.0000 130.4860 5.9260 25.2081 2.5313 -7.1250 0.0000 -0.0000 -24.5824 53.5717 -5.4381 0.0000 0.0000 0.0000 92.5064 -7.8611 -1.2803 -9.3465 15.7109 -1.2923 0.0000 0.0000 26.4778 -13.1578 9.8126 -2.2815 7.1250 -0.0000 -0.0000 9.8409 -19.9794 5.9740
-7.2339 16.4524 0.5088 384.1600 93.4284 398.0910 0.0000 0.0000 0.0000 -15.5285 -3.1696 -20.4812 10.7664 17.8189 62.0205 -0.2310 -9.5158 8.0848 0.0164 -0.8257 -2.2693 0.0000 0.0000 0.0000 24.5316 16.4556 -22.7705 -1.4262 -7.5517 21.3604 -0.3295 0.1967 -10.7751 -0.0090 0.6133 -1.6853 -2.7091 -0.1670 -12.8323 1.2308 0.3670 -6.2029 2.8582 0.3870 0.6651 -7.6389 -1.0566 6.9973 11.2826 -1.6287 -1.3619 4.7045 -0.9974 -1.3928 0.0000 -0.0000 0.0000 -91.7876 8.3917 -92.1741 6.0341 -10.3190 -0.5453 -0.0000 -0.0000 130.4090 5.9146 25.4632 2.5503 -7.1250 0.0000 -0.0000 -24.7508 53.8004 -5.6217 0.0000 -0.0000 0.0000 92.4513 -7.3840 -2.2866 -8.9762 15.1225 -1.1939 0.0000 0.0000 28.2218 -13.9391 11.4205 -2.8136 7.1250 -0.0000 -0.0000 9.2468 -18.3091 5.9519
-7.1292 16.4572 0.5239 382.8530 93.5933 396.5940 0.0000 0.0000 0.0000 -15.3216 -3.5697 -21.4347 11.2319 18.0467 63.5322 -0.2259 -8.7391 5.8057 0.0419 -1.3204 -3.6309 0.0000 0.0000 0.0000 24.7993 16.0250 -22.1141 -1.4132 -7.5186 21.2611 -0.3675 0.2277 -11.3739 -0.0133 0.7460 -2.0500 -2.7292 -0.1280 -12.5861 1.1814 0.4086 -6.1404 2.8210 0.4046 0.5955 -7.5883 -1.1077 6.9417 11.1484 -1.7025 -1.2618 4.6550 -1.0292 -1.3483 -0.0000 -0.0000 0.0000 -91.7254 8.2554 -93.0593 6.0789 -10.3937 -0.5534 -0.0000 -0.0000 132.1500 6.5115 24.9526 2.7567 -7.1250 0.0000 -0.0000 -23.8680 53.4444 -5.1886 -0.0000 -0.0000 0.0000 92.4773 -6.9577 -2.2701 -8.8140 14.8636 -1.1519 0.0000 0.0000 28.6143 -14.1846 11.9996 -3.0080 7.1250 -0.0000 -0.0000 9.0658 -17.7061 5.9544
-7.0182 16.4648 0.5372 380.2990 93.7927 393.6850 0.0000 0.0000 0.0000 -15.2210 -4.0169 -22.1256 11.6347 18.2319 64.8263 -0.2036 -7.9969 3.6087 0.0863 -1.8943 -5.2136 0.0000 0.0000 0.0000 25.0205 15.5120 -21.2693 -1.4031 -7.4928 21.1839 -0.4064 0.1282 -11.9996 -0.0227 0.9725 -2.6731 -2.7981 -0.1124 -12.3013 1.1196 0.4193 -6.0113 2.7944 0.4037 0.5764 -7.4588 -1.1549 7.0404 10.9957 -1.7590 -1.3615 4.5898 -1.0592 -1.3903 -0.0000 -0.0000 0.0000 -91.7687 8.2249 -90.7652 6.0095 -10.2781 -0.5410 -0.0000 -0.0000 129.8080 6.2487 25.2802 2.6772 -7.1250 0.0000 -0.0000 -24.3181 53.6951 -5.4495 -0.0000 -0.0000 0.0000 92.4942 -6.4841 -1.9716 -8.7894 14.8242 -1.1456 0.0000 0.0000 28.6442 -14.0643 11.4942 -2.8579 7.1250 -0.0000 -0.0000 9.1580 -18.2267 5.9101
-6.9166 16.4697 0.5483 378.2670 93.9283 391.5040 0.0000 0.0000 0.0000 -15.1591 -4.5767 -23.0903 11.9903 18.3865 65.9580 -0.1617 -7.1835 1.5389 0.0806 -1.8314 -5.0398 0.0000 0.0000 0.0000 25.1997 14.8551 -20.7602 -1.3861 -7.4493 21.0535 -0.4329 0.1919 -12.3641 -0.0372 1.2456 -3.4248 -2.8826 -0.1055 -12.1760 1.0893 0.4281 -5.9212 2.8109 0.4045 0.6019 -7.3724 -1.2149 7.0557 10.8156 -1.8407 -1.3570 4.5222 -1.0977 -1.3857 0.0000 0.0000 0.0000 -91.8178 7.8325 -91.1599 6.0126 -10.2832 -0.5415 -0.0000 -0.0000 130.1100 6.3757 25.4197 2.7460 -7.1250 0.0000 -0.0000 -24.2823 53.8447 -5.5320 0.0000 0.0000 0.0000 92.5100 -6.0572 -2.1364 -8.7566 14.7717 -1.1373 0.0000 0.0000 29.4081 -14.2280 11.2361 -2.8285 7.1250 -0.0000 -0.0000 9.0483 -18.4786 5.7865
-6.8197 16.4764 0.5608 377.2160 93.9552 390.4860 0.0000 0.0000 0.0000 -15.0502 -5.1782 -24.2808 12.3088 18.5181 66.9642 -0.1145 -6.4442 -0.1797 0.0305 -1.1269 -3.0981 0.0000 0.0000 0.0000 25.3481 14.2005 -20.5105 -1.3702 -7.4081 20.9301 -0.4580 0.4364 -12.6397 -0.1921 2.8229 -7.7862 -2.9628 -0.0439 -12.1487 1.0351 0.5190 -5.9310 2.8104 0.4517 0.5702 -7.2449 -1.2648 7.0459 10.5721 -1.9163 -1.1872 4.4263 -1.1288 -1.3300 0.0000 0.0000 0.0000 -91.7900 7.3695 -93.7037 6.0828 -10.4002 -0.5541 -0.0000 -0.0000 133.1890 7.1192 25.0559 3.0278 -7.1250 0.0000 -0.0000 -23.3478 53.6477 -5.1846 0.0000 0.0000 0.0000 92.6483 -5.8416 -2.2028 -8.8198 14.8727 -1.1534 0.0000 0.0000 29.6904 -14.2971 11.2797 -2.8536 7.1250 -0.0000 -0.0000 8.9992 -18.4300 5.7641
-6.7203 16.4862 0.5711 377.1810 93.8355 390.5250 0.0000 0.0000 0.0000 -14.9636 -5.6550 -25.5020 12.5945 18.6308 67.8613 -0.0596 -5.7472 -1.9350 0.0303 -1.1228 -3.0868 0.0000 0.0000 0.0000 25.4259 13.8612 -20.2330 -1.3624 -7.3880 20.8700 -0.4904 0.7766 -12.9816 -0.0774 1.7946 -4.9384 -3.0221 0.0855 -12.1912 0.9930 0.7015 -5.9662 2.8227 0.5459 0.5432 -7.2752 -1.2885 7.2505 10.5182 -1.9650 -1.1473 4.4183 -1.1564 -1.3473 0.0000 0.0000 0.0000 -91.9198 7.1855 -93.2510 6.0569 -10.3571 -0.5494 -0.0000 -0.0000 133.2100 7.7513 24.9119 3.2815 -7.1250 0.0000 -0.0000 -22.6544 53.6294 -5.0072 0.0000 0.0000 0.0000 92.7364 -5.4395 -2.5349 -8.7889 14.8234 -1.1455 0.0000 0.0000 29.8966 -13.9459 11.2536 -2.7745 7.1250 -0.0000 -0.0000 9.2455 -18.4779 5.9161
-6.6237 16.4876 0.5782 377.6090 93.8134 390.9880 0.0000 0.0000 0.0000 -14.8701 -6.0858 -26.5962 12.8236 18.7175 68.5766 0.0298 -4.7361 -4.2795 0.0965 -2.0032 -5.5144 0.0000 0.0000 0.0000 25.5734 13.5554 -19.9217 -1.3561 -7.3714 20.8204 -0.5113 1.0444 -13.1859 -0.0009 0.1904 -0.5231 -2.9950 0.1960 -12.1490 0.9879 0.8450 -5.9899 2.8185 0.6191 0.4859 -7.3112 -1.3147 7.3125 10.4746 -2.0083 -1.1488 4.4129 -1.1787 -1.3538 0.0000 0.0000 0.0000 -92.1072 7.0739 -90.7517 5.9476 -10.1748 -0.5300 -0.0000 -0.0000 130.6260 7.9219 24.9450 3.3586 -7.1250 0.0000 -0.0000 -22.5094 53.6907 -5.0071 0.0000 0.0000 0.0000 92.7602 -4.8634 -3.3873 -8.5904 14.5052 -1.0952 0.0000 0.0000 30.9548 -14.1746 11.7395 -2.9417 7.1250 -0.0000 -0.0000 9.0768 -17.9708 5.9082
-6.5295 16.4851 0.5865 376.9030 93.9740 390.2300 0.0000 0.0000 0.0000 -14.7668 -6.6639 -27.5560 12.9935 18.7798 69.1054 0.0820 -4.1241 -5.4661 0.0183 -0.8740 -2.4023 0.0000 0.0000 0.0000 25.7614 13.1439 -19.5469 -1.3517 -7.3599 20.7860 -0.5563 1.0795 -13.7591 -0.0078 0.5706 -1.5680 -2.9571 0.2345 -11.9911 0.9528 0.8867 -5.9976 2.7626 0.6399 0.3911 -7.2518 -1.4230 7.3471 10.2952 -2.1719 -0.8859 4.3502 -1.2544 -1.2692 0.0000 -0.0000 0.0000 -92.2302 6.8553 -89.5011 5.9086 -10.1097 -0.5231 -0.0000 -0.0000 129.4980 7.8841 24.8849 3.3349 -7.1250 0.0000 -0.0000 -22.5107 53.6287 -4.9724 0.0000 -0.0000 0.0000 92.8197 -4.4638 -1.8733 -8.7545 14.7684 -1.1367 0.0000 0.0000 29.5362 -13.8170 9.9705 -2.4383 7.1250 -0.0000 -0.0000 9.3686 -19.7861 5.7204
-6.4295 16.4862 0.5965 375.8370 94.1181 389.0690 0.0000 0.0000 0.0000 -14.6846 -7.2620 -28.4412 13.1035 18.8192 69.4466 0.1435 -3.1497 -6.7582 0.0024 -0.3144 -0.8638 0.0000 0.0000 0.0000 25.8994 12.8634 -19.0527 -1.3575 -7.3752 20.8319 -0.5942 0.8916 -14.2840 -0.0240 0.9994 -2.7472 -2.9393 0.2265 -11.9170 0.8973 0.8700 -5.9590 2.6920 0.6284 0.3941 -7.0560 -1.3861 7.2397 10.0739 -2.1230 -0.5958 4.2446 -1.2198 -1.1746 0.0000 -0.0000 0.0000 -92.4005 6.6624 -87.8620 5.8736 -10.0511 -0.5170 -0.0000 -0.0000 128.2040 7.9363 24.9958 3.3712 -7.1250 0.0000 -0.0000 -22.5254 53.7401 -5.0388 0.0000 -0.0000 0.0000 92.8498 -3.9805 -1.4141 -8.6491 14.5995 -1.1100 0.0000 0.0000 29.4503 -13.6061 9.7760 -2.3534 7.1250 -0.0000 -0.0000 9.5242 -19.9940 5.7731
-6.3286 16.4862 0.6033 376.5530 94.0422 389.8190 0.0000 0.0000 0.0000 -14.5978 -7.6709 -29.4667 13.1517 18.8363 69.5961 0.2069 -2.0480 -8.1230 0.0020 -0.2859 -0.7854 0.0000 0.0000 0.0000 26.0339 12.6454 -18.7170 -1.3635 -7.3907 20.8782 -0.6342 1.0542 -14.7202 -0.0262 1.0444 -2.8709 -2.8518 0.3391 -12.0076 0.8221 1.0150 -5.9564 2.5830 0.6977 0.4393 -7.0005 -1.3751 7.2255 10.1027 -2.1079 -0.4622 4.2426 -1.2101 -1.1348 -0.0000 -0.0000 0.0000 -92.5271 6.5270 -84.6445 5.7655 -9.8705 -0.4983 -0.0000 -0.0000 124.9970 7.9761 25.0645 3.3970 -7.1250 0.0000 -0.0000 -22.5278 53.8105 -5.0792 -0.0000 -0.0000 0.0000 92.9639 -3.6617 -0.7363 -8.7099 14.6969 -1.1254 0.0000 0.0000 28.9297 -13.2921 9.2854 -2.1830 7.1250 -0.0000 -0.0000 9.7646 -20.5056 5.8092
-6.2338 16.4861 0.6065 376.7760 93.7731 390.2830 0.0000 0.0000 0.0000 -14.6291 -8.0629 -30.7575 13.1527 18.8366 69.5992 0.2588 -1.1404 -9.2746 0.0008 -0.1787 -0.4909 0.0000 0.0000 0.0000 26.0222 12.3005 -18.7441 -1.3680 -7.4024 20.9132 -0.6687 1.5827 -14.9893 -0.0328 1.1683 -3.2121 -2.8656 0.5522 -12.2222 0.6950 1.3143 -6.0414 2.4977 0.8506 0.4495 -6.9346 -1.4669 7.2810 10.0695 -2.2350 -0.3237 4.2241 -1.2718 -1.0930 0.0000 -0.0000 0.0000 -92.5869 6.3302 -82.2438 5.6668 -9.7053 -0.4815 -0.0000 -0.0000 122.7210 8.1101 24.8828 3.4313 -7.1250 0.0000 -0.0000 -22.2915 53.6673 -4.9417 0.0000 -0.0000 0.0000 93.1042 -3.3674 -0.3472 -8.7587 14.7750 -1.1378 0.0000 0.0000 28.6001 -13.2305 8.9348 -2.0912 7.1250 -0.0000 -0.0000 9.8222 -20.8627 5.7641
-6.1400 16.4885 0.6124 375.1540 93.6383 388.6450 0.0000 0.0000 0.0000 -14.6989 -8.6057 -31.6556 13.0767 18.8097 69.3635 0.3029 -0.4399 -10.2497 0.0016 -0.2587 -0.7109 0.0000 0.0000 0.0000 26.0026 11.8677 -18.5067 -1.3762 -7.4236 20.9765 -0.6980 1.7390 -15.2866 -0.0653 1.6491 -4.5368 -2.9831 0.6753 -12.1413 0.6018 1.4897 -6.0717 2.4854 0.9416 0.3623 -7.0746 -1.5683 7.1910 9.7083 -2.4061 0.1677 4.5891 -1.3358 -1.0184 -0.0000 -0.0000 0.0000 -92.7421 6.2128 -79.9931 5.5907 -9.5778 -0.4687 -0.0000 -0.0000 120.8560 8.4906 24.5468 3.5488 -7.1250 0.0000 -0.0000 -21.7305 53.4250 -4.6758 -0.0000 -0.0000 0.0000 93.1392 -2.9470 -0.4480 -8.6502 14.6012 -1.1103 0.0000 0.0000 28.9978 -13.3118 9.3302 -2.1968 7.1250 -0.0000 -0.0000 9.7489 -20.4593 5.8098
